<svg width="17" height="19" viewBox="0 0 17 19" fill="none" xmlns="http://www.w3.org/2000/svg">
<path d="M8.18941 17.0179H3.40577C2.10574 17.0179 1.05092 15.9759 1.05092 14.7001V3.35225C1.05092 2.07265 2.10963 1.03441 3.40577 1.03441H8.26726C8.55918 1.03441 8.79272 0.804539 8.79272 0.517204C8.79272 0.229868 8.55918 0 8.26726 0H3.40577C1.52578 0 0 1.50564 0 3.35225V14.7001C0 16.5505 1.52968 18.0523 3.40577 18.0523H8.18941C8.48134 18.0523 8.71488 17.8225 8.71488 17.5351C8.71488 17.2478 8.47744 17.0179 8.18941 17.0179Z" fill="#AAAAAA"/>
<path d="M16.8457 8.66218L13.5061 5.37507C13.2998 5.17202 12.9689 5.17202 12.7626 5.37507C12.5563 5.57812 12.5563 5.90376 12.7626 6.10681L15.207 8.51277H4.54597C4.25405 8.51277 4.02051 8.74264 4.02051 9.02997C4.02051 9.31731 4.25405 9.54718 4.54597 9.54718H15.207L12.7626 11.9531C12.5563 12.1562 12.5563 12.4818 12.7626 12.6849C12.8638 12.7845 13.0001 12.8381 13.1324 12.8381C13.2647 12.8381 13.401 12.7883 13.5022 12.6849L16.8418 9.39776C17.052 9.19088 17.052 8.8614 16.8457 8.66218Z" fill="#AAAAAA"/>
</svg>
