<svg width="34" height="35" viewBox="0 0 34 35" fill="none" xmlns="http://www.w3.org/2000/svg">
<mask id="path-1-inside-1" fill="white">
<path d="M4.97918 5.97919C2.60169 8.35668 0.982599 11.3858 0.32665 14.6835C-0.329299 17.9811 0.00735843 21.3993 1.29405 24.5056C2.58074 27.612 4.75967 30.267 7.55531 32.135C10.3509 34.003 13.6377 35 17 35C20.3623 35 23.6491 34.003 26.4447 32.135C29.2403 30.267 31.4193 27.612 32.706 24.5056C33.9926 21.3993 34.3293 17.9811 33.6734 14.6835C33.0174 11.3858 31.3983 8.35668 29.0208 5.97918L28.2825 6.71752C30.5139 8.94898 32.0336 11.792 32.6493 14.8872C33.2649 17.9823 32.9489 21.1905 31.7413 24.106C30.5336 27.0216 28.4885 29.5135 25.8646 31.2668C23.2407 33.02 20.1558 33.9558 17 33.9558C13.8442 33.9558 10.7593 33.02 8.13541 31.2668C5.51149 29.5135 3.46639 27.0216 2.25873 24.106C1.05107 21.1905 0.735088 17.9823 1.35075 14.8872C1.96641 11.792 3.48605 8.94898 5.71752 6.71752L4.97918 5.97919Z"/>
</mask>
<path d="M4.97918 5.97919C2.60169 8.35668 0.982599 11.3858 0.32665 14.6835C-0.329299 17.9811 0.00735843 21.3993 1.29405 24.5056C2.58074 27.612 4.75967 30.267 7.55531 32.135C10.3509 34.003 13.6377 35 17 35C20.3623 35 23.6491 34.003 26.4447 32.135C29.2403 30.267 31.4193 27.612 32.706 24.5056C33.9926 21.3993 34.3293 17.9811 33.6734 14.6835C33.0174 11.3858 31.3983 8.35668 29.0208 5.97918L28.2825 6.71752C30.5139 8.94898 32.0336 11.792 32.6493 14.8872C33.2649 17.9823 32.9489 21.1905 31.7413 24.106C30.5336 27.0216 28.4885 29.5135 25.8646 31.2668C23.2407 33.02 20.1558 33.9558 17 33.9558C13.8442 33.9558 10.7593 33.02 8.13541 31.2668C5.51149 29.5135 3.46639 27.0216 2.25873 24.106C1.05107 21.1905 0.735088 17.9823 1.35075 14.8872C1.96641 11.792 3.48605 8.94898 5.71752 6.71752L4.97918 5.97919Z" stroke="black" stroke-width="2" mask="url(#path-1-inside-1)"/>
<path d="M18.0408 3.10227L17.6928 2.73162L17.695 3.24006L17.8 27C17.8 27.0001 17.8 27.0003 17.8 27.0004C17.7999 27.1997 17.7033 27.4004 17.5457 27.5547C17.3873 27.7096 17.1854 27.8 17 27.8C16.8149 27.8 16.6149 27.7099 16.4574 27.555C16.3009 27.4011 16.2033 27.1998 16.2 26.9989L16.305 3.24006L16.3072 2.73162L15.9592 3.10227L11.375 7.98427C11.1047 8.2721 10.678 8.2721 10.4078 7.98427C10.1307 7.68927 10.1307 7.21246 10.4078 6.91746L16.5127 0.415878C16.6433 0.276875 16.8238 0.200001 17 0.200001C17.1826 0.200001 17.3561 0.276205 17.4873 0.415878L23.5922 6.91746C23.8693 7.21246 23.8693 7.68927 23.5922 7.98427C23.322 8.2721 22.8953 8.2721 22.625 7.98427L18.0408 3.10227Z" fill="black" stroke="white" stroke-width="0.4"/>
</svg>
