<svg width="34" height="34" viewBox="0 0 34 34" fill="none" xmlns="http://www.w3.org/2000/svg">
<path d="M4.07539 27.8878L4.14602 27.7434L4.04381 27.6192C-1.39435 21.0124 -0.952467 11.2624 5.15287 5.16007C8.31835 1.99614 12.5212 0.25 16.9988 0.25C21.4764 0.25 25.6792 1.99614 28.8447 5.16007C32.0099 8.32368 33.75 12.5385 33.75 17.0071C33.75 21.4756 32.0099 25.6834 28.8447 28.847C25.6794 32.0108 21.4767 33.75 16.9988 33.75C14.2195 33.75 11.4895 33.0625 9.06165 31.758L8.92725 31.6858L8.80157 31.7723C7.00908 33.0062 4.86419 33.7073 2.83228 33.7073C2.42607 33.7073 2.03267 33.6729 1.666 33.6176C1.08506 33.5274 0.641797 33.0799 0.551052 32.4964C0.467402 31.9199 0.761786 31.3567 1.28338 31.099C2.37199 30.5661 3.30143 29.4712 4.07539 27.8878ZM2.80401 31.8205L2.17606 32.2883L2.95892 32.2709C3.95265 32.2488 6.20416 31.9919 8.43944 30.2622C8.56762 30.1666 8.72822 30.1139 8.87922 30.1139C8.9938 30.1139 9.12186 30.1493 9.23819 30.2155C11.577 31.5902 14.2627 32.3208 16.9988 32.3208C21.0891 32.3208 24.9418 30.7284 27.8377 27.834C33.8187 21.8631 33.8184 12.1369 27.8379 6.15201L27.8378 6.15191C24.9419 3.25742 21.0891 1.66499 16.9988 1.66499C12.9084 1.66499 9.05569 3.25742 6.15978 6.15191C0.439805 11.8691 0.157152 21.0883 5.51499 27.1388C5.70148 27.3523 5.74717 27.6478 5.63741 27.8985L5.63731 27.8987C4.84332 29.7177 3.90471 31.0005 2.80401 31.8205Z" fill="black" stroke="white" stroke-width="0.5"/>
<path d="M9.87632 11.6404H24.1212C24.5115 11.6404 24.8327 11.9569 24.8327 12.3514C24.8327 12.7472 24.5174 13.0625 24.1212 13.0625H9.87632C9.4801 13.0625 9.16479 12.7472 9.16479 12.3514C9.16479 11.9557 9.4801 11.6404 9.87632 11.6404Z" fill="black" stroke="white" stroke-width="0.5"/>
<path d="M9.87632 16.2893H24.1212C24.5115 16.2893 24.8327 16.6058 24.8327 17.0004C24.8327 17.3961 24.5174 17.7114 24.1212 17.7114H9.87632C9.4801 17.7114 9.16479 17.3961 9.16479 17.0004C9.16479 16.6046 9.4801 16.2893 9.87632 16.2893Z" fill="black" stroke="white" stroke-width="0.5"/>
<path d="M9.87632 20.9375H24.1212C24.5115 20.9375 24.8327 21.254 24.8327 21.6486C24.8327 22.0443 24.5174 22.3596 24.1212 22.3596H9.87632C9.4801 22.3596 9.16479 22.0443 9.16479 21.6486C9.16479 21.2528 9.4801 20.9375 9.87632 20.9375Z" fill="black" stroke="white" stroke-width="0.5"/>
</svg>
