<svg width="34" height="34" viewBox="0 0 34 34" fill="none" xmlns="http://www.w3.org/2000/svg">
<path d="M19.902 10.7529L19.4458 10.9575L19.902 10.7529C19.5603 9.99058 18.8027 9.5 17.9673 9.5H16.2706C15.4349 9.5 14.6769 9.99017 14.3341 10.7523C14.0025 11.4894 13.2478 11.9427 12.4414 11.8893L12.1457 11.8698C10.2059 11.7413 8.56177 13.2801 8.56177 15.2242V20C8.56177 21.933 10.1288 23.5 12.0618 23.5H22.1717C24.1047 23.5 25.6717 21.933 25.6717 20V15.2226C25.6717 13.2794 24.0283 11.7413 22.0894 11.8697L21.7911 11.8894C20.9857 11.9427 20.2322 11.4894 19.902 10.7529Z" stroke="black"/>
<path d="M17.1168 21.5C19.5491 21.5 21.6443 19.7727 21.6443 17.5C21.6443 15.2273 19.5491 13.5 17.1168 13.5C14.6846 13.5 12.5894 15.2273 12.5894 17.5C12.5894 19.7727 14.6846 21.5 17.1168 21.5Z" stroke="black"/>
<circle cx="17" cy="17" r="16.5" stroke="black"/>
</svg>
