<svg width="34" height="34" viewBox="0 0 34 34" fill="none" xmlns="http://www.w3.org/2000/svg">
<circle cx="17" cy="17" r="17" fill="#6BA30F"/>
<g clip-path="url(#clip0)">
<path d="M18.9071 12.625C19.5176 12.7441 20.1381 13.0784 20.5184 13.4825C20.8987 13.8865 21.2568 14.4833 21.3759 15.0938M18.9071 10.125C20.1754 10.2659 21.3581 10.8339 22.261 11.7356C23.1639 12.6374 23.7334 13.8194 23.8759 15.0875M23.2509 20.075V21.95C23.2516 22.1241 23.2159 22.2964 23.1462 22.4558C23.0765 22.6153 22.9742 22.7585 22.8459 22.8762C22.7177 22.9938 22.5662 23.0834 22.4013 23.1392C22.2365 23.195 22.0617 23.2157 21.8884 23.2C19.9651 22.991 18.1177 22.3338 16.4946 21.2813C14.9845 20.3217 13.7042 19.0414 12.7446 17.5313C11.6884 15.9008 11.031 14.0444 10.8259 12.1125C10.8103 11.9397 10.8308 11.7655 10.8862 11.601C10.9416 11.4366 11.0306 11.2854 11.1476 11.1573C11.2646 11.0291 11.407 10.9267 11.5657 10.8566C11.7245 10.7865 11.8961 10.7502 12.0696 10.75H13.9446C14.2479 10.747 14.542 10.8544 14.772 11.0522C15.002 11.25 15.1522 11.5247 15.1946 11.825C15.2738 12.425 15.4205 13.0142 15.6321 13.5813C15.7162 13.805 15.7344 14.0481 15.6846 14.2818C15.6347 14.5155 15.5189 14.7301 15.3509 14.9L14.5571 15.6938C15.4468 17.2585 16.7424 18.554 18.3071 19.4438L19.1009 18.65C19.2708 18.482 19.4853 18.3662 19.7191 18.3163C19.9528 18.2665 20.1959 18.2847 20.4196 18.3688C20.9867 18.5803 21.5758 18.7271 22.1759 18.8063C22.4795 18.8491 22.7567 19.002 22.955 19.2359C23.1532 19.4699 23.2585 19.7685 23.2509 20.075Z" stroke="white" stroke-linecap="round" stroke-linejoin="round"/>
</g>
<defs>
<clipPath id="clip0">
<rect x="9.50024" y="9.5" width="15" height="15" fill="white"/>
</clipPath>
</defs>
</svg>
