<svg width="16" height="16" viewBox="0 0 16 16" fill="none" xmlns="http://www.w3.org/2000/svg">
<path d="M13.6568 2.34316C12.1459 0.832156 10.1369 0 8 0C5.86312 0 3.85416 0.832156 2.34316 2.34316C0.832156 3.85416 0 5.86312 0 8C0 10.1369 0.832156 12.1458 2.34316 13.6568C3.85416 15.1678 5.86312 16 8 16C10.1369 16 12.1459 15.1678 13.6568 13.6568C15.1678 12.1458 16 10.1369 16 8C16 5.86312 15.1678 3.85416 13.6568 2.34316ZM11.7494 3.43847L12.1011 1.97747C13.5015 2.93409 14.5526 4.36578 15.0205 6.03866L14.8363 6.07409C14.5612 6.127 14.3398 6.33687 14.2724 6.60884L14.2009 6.89691C14.2001 6.90016 14.1996 6.90228 14.1944 6.90413C14.1892 6.90597 14.1874 6.90466 14.1847 6.90266L13.7579 6.58256C13.5367 6.41663 13.2354 6.39228 12.9905 6.52056L12.4578 6.79944C12.2023 6.93319 12.0546 7.19509 12.0724 7.48297C12.0901 7.77081 12.2688 8.01259 12.5389 8.114L12.5642 8.12347C12.5671 8.12456 12.5693 8.12534 12.5706 8.13059C12.5719 8.13578 12.5704 8.1375 12.5683 8.13988L12.2365 8.52147C12.2332 8.52528 12.2274 8.52616 12.2231 8.52334L11.3287 7.94628C11.1236 7.81394 10.868 7.794 10.6449 7.89309C10.4218 7.99216 10.2651 8.19506 10.2257 8.43591L10.1567 8.85756C10.1177 9.09556 10.1996 9.33606 10.3757 9.50088L10.8422 9.93734C10.8459 9.94078 10.8465 9.94634 10.8438 9.95053L10.0836 11.1029C10.0113 11.2125 9.97019 11.3399 9.96491 11.4713L9.89894 13.1211C9.89884 13.1237 9.89775 13.1261 9.89584 13.128L8.8835 14.1202C8.88016 14.1235 8.875 14.1242 8.87103 14.1218L8.21459 13.7373C8.21209 13.7358 8.21031 13.7334 8.20972 13.7306C8.20972 13.7306 7.89125 12.2855 7.87934 12.2534L7.58981 11.4763C7.49306 11.2167 7.25225 11.0334 6.97631 11.0095L5.65125 10.8942C5.64791 10.8939 5.64491 10.8921 5.64322 10.8891L4.88941 9.58937C4.88822 9.58734 4.88781 9.58494 4.88812 9.58266L5.07772 8.32213C5.07812 8.31944 5.07953 8.31703 5.08169 8.31541L6.23909 7.44212C6.24203 7.43991 6.24591 7.43947 6.24931 7.44084L7.37081 7.90872C7.43466 7.93531 7.50187 7.95259 7.57053 7.96006L9.12384 8.12891C9.30091 8.14816 9.47756 8.10162 9.62209 7.99803L10.6512 7.26038C10.9285 7.06166 11.0287 6.69134 10.8897 6.37984L10.7942 6.16616C10.6834 5.91816 10.4461 5.75488 10.1749 5.74006L7.28472 5.58181C7.28316 5.58172 7.28159 5.58125 7.28022 5.58047C7.27728 5.57881 7.27572 5.57747 7.27556 5.57747V5.5775C7.27416 5.57425 7.27522 5.56603 7.27688 5.56375C7.27731 5.56347 7.27912 5.56253 7.28266 5.56153L8.15034 5.32766C8.26513 5.29672 8.37144 5.23728 8.45778 5.15578L9.51891 4.15444C9.5205 4.15291 9.52262 4.15194 9.52487 4.15169L11.1219 3.98722C11.4257 3.95597 11.6779 3.73547 11.7494 3.43847ZM6.33994 2.85138L6.93694 1.72769C7.02516 1.56159 7.05297 1.36866 7.01516 1.18444L6.93409 0.789281C7.28212 0.738031 7.63794 0.711125 7.99997 0.711125C8.36509 0.711125 8.72394 0.738469 9.07481 0.790531C9.07481 0.790531 8.98928 0.884031 8.9745 0.889938L8.12897 1.22909C8.00816 1.27759 7.89953 1.3555 7.81484 1.45444L6.49744 2.99425C6.47953 3.01519 6.45347 3.02784 6.42591 3.02903C6.38406 3.03087 6.35822 3.00778 6.34613 2.99434C6.29928 2.94222 6.33538 2.86006 6.33994 2.85138ZM3.232 2.49119V3.55803C3.232 3.856 3.08266 4.13047 2.83272 4.29259L2.06719 4.78934C1.88978 4.90453 1.73937 5.05137 1.62025 5.22597L0.925438 6.24409C1.29297 4.76369 2.11378 3.46038 3.232 2.49119ZM3.69672 12.987L3.596 13.8039C2.45625 12.9369 1.57844 11.7427 1.10428 10.3623H1.55697C1.61244 10.3623 1.66363 10.3904 1.6935 10.437L2.60834 11.8624C2.64959 11.9264 2.69866 11.9847 2.75484 12.0359L3.64481 12.8476C3.68356 12.8828 3.70312 12.9351 3.69672 12.987ZM8 15.2889C6.63253 15.2889 5.352 14.91 4.25728 14.2522L4.4025 13.0741C4.437 12.7936 4.33281 12.5123 4.12409 12.3221C4.12409 12.3221 3.21459 11.4901 3.20675 11.4784L2.29191 10.053C2.13047 9.80125 1.85563 9.65119 1.55697 9.65119H0.899781C0.776406 9.12044 0.711094 8.56769 0.711094 8C0.711094 7.93869 0.711906 7.87762 0.713406 7.81669L2.20762 5.62703C2.27341 5.53031 2.35625 5.44925 2.45438 5.38562L3.21953 4.88928C3.6725 4.59559 3.94309 4.09781 3.94309 3.55809V1.94738C4.63338 1.48319 5.40709 1.13416 6.2365 0.927281L6.31856 1.32731C6.32319 1.34997 6.31978 1.37369 6.30894 1.39406L5.712 2.51772C5.67469 2.58788 5.62634 2.77238 5.62634 2.77238C5.57788 3.01775 5.64344 3.26737 5.80625 3.45725C5.9615 3.63834 6.18394 3.74028 6.42094 3.74028C6.43247 3.74028 6.77625 3.75706 7.03775 3.45659L8.35513 1.91688C8.36553 1.90469 8.37894 1.89509 8.39375 1.88916L9.23922 1.55003C9.35947 1.50181 9.46762 1.42441 9.55206 1.32622L9.87122 0.955125C10.433 1.1045 10.9685 1.319 11.4686 1.59075C11.4604 1.60962 11.0579 3.27213 11.0579 3.27213C11.0569 3.27634 11.0533 3.2795 11.049 3.27994L9.45187 3.44441C9.29494 3.46059 9.14534 3.52909 9.03069 3.63734L7.96956 4.63869C7.96834 4.63981 7.96688 4.64069 7.96519 4.64109L7.09747 4.87497C6.81437 4.95125 6.60722 5.18847 6.56972 5.47925C6.53222 5.77003 6.67241 6.052 6.92691 6.19769C7.02394 6.25319 7.13422 6.28575 7.24578 6.29187L10.136 6.45013C10.1398 6.45034 10.1433 6.45269 10.1448 6.45622L10.2402 6.66984C10.2422 6.67428 10.2408 6.67959 10.2368 6.68244L9.20769 7.42009C9.20562 7.42159 9.20322 7.42225 9.20063 7.42197L7.6445 7.25244L6.52313 6.78463C6.28753 6.68628 6.01466 6.72078 5.81084 6.8745L4.65341 7.74781C4.50184 7.86219 4.40281 8.02859 4.37459 8.21638L4.18497 9.47694C4.16072 9.63831 4.19247 9.80494 4.27431 9.94609L5.02816 11.2459C5.14591 11.449 5.35584 11.5823 5.58972 11.6027L6.91481 11.718C6.91872 11.7183 6.92219 11.7209 6.92356 11.7247L7.21347 12.5032L7.51509 13.8826C7.558 14.0787 7.68197 14.2494 7.85519 14.3509L8.51166 14.7355C8.62478 14.8018 8.75056 14.8341 8.87556 14.8341C9.06009 14.8341 9.24303 14.7637 9.38128 14.6282L10.3936 13.6359C10.5255 13.5067 10.6022 13.3339 10.6095 13.1495L10.6755 11.4998C10.6756 11.4979 10.6761 11.4961 10.6772 11.4946L11.4374 10.3422C11.6316 10.0478 11.5856 9.65919 11.3281 9.41825L10.8616 8.98178C10.8591 8.97944 10.8579 8.976 10.8585 8.97259L10.9275 8.55091C10.9281 8.5475 10.9284 8.54544 10.9335 8.54316C10.9385 8.54088 10.9403 8.54203 10.9432 8.54391L11.8376 9.12097C12.137 9.31419 12.5392 9.25719 12.7731 8.98822L13.1049 8.60662C13.2599 8.42837 13.3179 8.18522 13.2599 7.95622C13.2019 7.72722 13.0353 7.54091 12.814 7.45784L12.7888 7.44838C12.7855 7.44716 12.7839 7.44609 12.7838 7.44609C12.7819 7.44341 12.7814 7.43534 12.7828 7.43272C12.7831 7.43241 12.7846 7.43116 12.7876 7.42956L13.3203 7.15066C13.3238 7.14881 13.3281 7.14916 13.3313 7.15153L13.7581 7.47162C13.9522 7.61719 14.2044 7.65547 14.4329 7.57409C14.6614 7.49275 14.8327 7.30363 14.8911 7.06819L14.9626 6.78016C14.9635 6.77628 14.9667 6.77325 14.9706 6.7725L15.1783 6.73256C15.2509 7.14434 15.289 7.56784 15.289 8.00009C15.2889 12.0191 12.0191 15.2889 8 15.2889Z" fill="white"/>
</svg>
