<svg width="13" height="13" viewBox="0 0 13 13" fill="none" xmlns="http://www.w3.org/2000/svg">
<path d="M6.99323 2.23254H6.01912C5.58694 2.23254 5.23535 2.35354 5.23535 2.50228V4.45047C5.23535 4.59921 5.58694 4.72021 6.01912 4.72021H6.99323C7.42541 4.72021 7.777 4.59921 7.777 4.45047V2.50228C7.777 2.35354 7.42538 2.23254 6.99323 2.23254ZM6.99317 4.45047H6.01906V2.50228H6.99317L6.99367 4.45045C6.9937 4.45045 6.99353 4.45047 6.99317 4.45047Z" fill="#707683"/>
<path d="M10.3753 2.23254H9.4012C8.96902 2.23254 8.61743 2.35354 8.61743 2.50228V4.45047C8.61743 4.59921 8.96902 4.72021 9.4012 4.72021H10.3753C10.8075 4.72021 11.1591 4.59921 11.1591 4.45047V2.50228C11.1591 2.35354 10.8075 2.23254 10.3753 2.23254ZM10.3753 4.45047H9.40114V2.50228H10.3753L10.3758 4.45045C10.3758 4.45045 10.3756 4.45047 10.3753 4.45047Z" fill="#707683"/>
<path d="M3.61091 2.23254H2.63679C2.20461 2.23254 1.85303 2.35354 1.85303 2.50228V4.45047C1.85303 4.59921 2.20461 4.72021 2.63679 4.72021H3.61091C4.04309 4.72021 4.39467 4.59921 4.39467 4.45047V2.50228C4.39467 2.35354 4.04306 2.23254 3.61091 2.23254ZM3.61085 4.45047H2.63673V2.50228H3.61085L3.61135 4.45045C3.61138 4.45045 3.6112 4.45047 3.61085 4.45047Z" fill="#707683"/>
<path d="M6.99323 5.19861H6.01912C5.58694 5.19861 5.23535 5.31961 5.23535 5.46834V7.41654C5.23535 7.56527 5.58694 7.68627 6.01912 7.68627H6.99323C7.42541 7.68627 7.777 7.56527 7.777 7.41654V5.46834C7.777 5.31961 7.42538 5.19861 6.99323 5.19861ZM6.99317 7.41654H6.01906V5.46834H6.99317L6.99367 7.41652C6.9937 7.41652 6.99353 7.41654 6.99317 7.41654Z" fill="#707683"/>
<path d="M10.3753 5.19861H9.4012C8.96902 5.19861 8.61743 5.31961 8.61743 5.46834V7.41654C8.61743 7.56527 8.96902 7.68627 9.4012 7.68627H10.3753C10.8075 7.68627 11.1591 7.56527 11.1591 7.41654V5.46834C11.1591 5.31961 10.8075 5.19861 10.3753 5.19861ZM10.3753 7.41654H9.40114V5.46834H10.3753L10.3758 7.41652C10.3758 7.41652 10.3756 7.41654 10.3753 7.41654Z" fill="#707683"/>
<path d="M3.61091 5.19861H2.63679C2.20461 5.19861 1.85303 5.31961 1.85303 5.46834V7.41654C1.85303 7.56527 2.20461 7.68627 2.63679 7.68627H3.61091C4.04309 7.68627 4.39467 7.56527 4.39467 7.41654V5.46834C4.39467 5.31961 4.04306 5.19861 3.61091 5.19861ZM3.61085 7.41654H2.63673V5.46834H3.61085L3.61135 7.41652C3.61138 7.41652 3.6112 7.41654 3.61085 7.41654Z" fill="#707683"/>
<path d="M6.99323 8.16467H6.01912C5.58694 8.16467 5.23535 8.28567 5.23535 8.43441V10.3826C5.23535 10.5313 5.58694 10.6523 6.01912 10.6523H6.99323C7.42541 10.6523 7.777 10.5313 7.777 10.3826V8.43441C7.777 8.28567 7.42538 8.16467 6.99323 8.16467ZM6.99317 10.3826H6.01906V8.43441H6.99317L6.99367 10.3826C6.9937 10.3826 6.99353 10.3826 6.99317 10.3826Z" fill="#707683"/>
<path d="M10.3753 8.16467H9.4012C8.96902 8.16467 8.61743 8.28567 8.61743 8.43441V10.3826C8.61743 10.5313 8.96902 10.6523 9.4012 10.6523H10.3753C10.8075 10.6523 11.1591 10.5313 11.1591 10.3826V8.43441C11.1591 8.28567 10.8075 8.16467 10.3753 8.16467ZM10.3753 10.3826H9.40114V8.43441H10.3753L10.3758 10.3826C10.3758 10.3826 10.3756 10.3826 10.3753 10.3826Z" fill="#707683"/>
<path d="M3.61091 8.16467H2.63679C2.20461 8.16467 1.85303 8.28567 1.85303 8.43441V10.3826C1.85303 10.5313 2.20461 10.6523 2.63679 10.6523H3.61091C4.04309 10.6523 4.39467 10.5313 4.39467 10.3826V8.43441C4.39467 8.28567 4.04306 8.16467 3.61091 8.16467ZM3.61085 10.3826H2.63673V8.43441H3.61085L3.61135 10.3826C3.61138 10.3826 3.6112 10.3826 3.61085 10.3826Z" fill="#707683"/>
<path d="M12.4146 0H0.585417C0.262084 0 0 0.176328 0 0.393864V12.4591C0 12.6766 0.262084 12.8529 0.585417 12.8529H12.4146C12.7379 12.8529 13 12.6766 13 12.4591V0.393864C13 0.176368 12.7379 0 12.4146 0ZM11.8291 12.0652H1.17077V0.787768H11.8291V12.0652Z" fill="#707683"/>
</svg>
