<svg width="13" height="13" viewBox="0 0 13 13" fill="none" xmlns="http://www.w3.org/2000/svg">
<path d="M11.0962 1.90381C9.86852 0.676127 8.23621 0 6.5 0C4.76379 0 3.1315 0.676127 1.90381 1.90381C0.676127 3.1315 0 4.76379 0 6.5C0 8.23621 0.676127 9.8685 1.90381 11.0962C3.1315 12.3239 4.76379 13 6.5 13C8.23621 13 9.86852 12.3239 11.0962 11.0962C12.3239 9.8685 13 8.23621 13 6.5C13 4.76379 12.3239 3.1315 11.0962 1.90381ZM9.54637 2.79376L9.83211 1.60669C10.9699 2.38395 11.824 3.5472 12.2042 4.90641L12.0545 4.9352C11.831 4.97819 11.6511 5.14871 11.5963 5.36969L11.5382 5.60374C11.5376 5.60638 11.5372 5.6081 11.5329 5.6096C11.5287 5.6111 11.5273 5.61003 11.5251 5.60841L11.1783 5.34833C10.9985 5.21351 10.7538 5.19373 10.5548 5.29796L10.1219 5.52454C9.91438 5.63321 9.79438 5.84601 9.8088 6.07991C9.82323 6.31379 9.96844 6.51023 10.1879 6.59263L10.2084 6.60032C10.2108 6.60121 10.2125 6.60184 10.2136 6.60611C10.2146 6.61032 10.2135 6.61172 10.2118 6.61365L9.94216 6.92369C9.93944 6.92679 9.93477 6.9275 9.93126 6.92522L9.20458 6.45635C9.03795 6.34882 8.83022 6.33262 8.64899 6.41314C8.46775 6.49363 8.34039 6.65849 8.3084 6.85417L8.25233 7.19677C8.22065 7.39014 8.28717 7.58555 8.4303 7.71946L8.80928 8.07409C8.81227 8.07688 8.81281 8.0814 8.81055 8.08481L8.19289 9.02109C8.13414 9.11018 8.10078 9.2137 8.09649 9.32042L8.04289 10.6609C8.04281 10.663 8.04192 10.665 8.04037 10.6665L7.21784 11.4727C7.21513 11.4754 7.21094 11.4759 7.20771 11.474L6.67436 11.1615C6.67233 11.1603 6.67088 11.1584 6.6704 11.1561C6.6704 11.1561 6.41164 9.98194 6.40197 9.95592L6.16672 9.3245C6.08811 9.11356 5.89245 8.96467 5.66825 8.94519L4.59164 8.85155C4.58892 8.85132 4.58649 8.8498 4.58511 8.84739L3.97264 7.79137C3.97168 7.78972 3.97135 7.78776 3.9716 7.78591L4.12565 6.76173C4.12598 6.75954 4.12712 6.75759 4.12887 6.75627L5.06926 6.04673C5.07165 6.04492 5.0748 6.04457 5.07757 6.04569L5.98879 6.42583C6.04066 6.44744 6.09527 6.46148 6.15106 6.46755L7.41312 6.60474C7.55699 6.62038 7.70052 6.58257 7.81795 6.4984L8.65411 5.89905C8.87938 5.7376 8.96086 5.43672 8.84785 5.18362L8.77028 5.01C8.68027 4.8085 8.48745 4.67584 8.26714 4.6638L5.91883 4.53522C5.91756 4.53515 5.91629 4.53477 5.91518 4.53413C5.91279 4.53278 5.91152 4.53169 5.91139 4.53169V4.53172C5.91025 4.52908 5.91112 4.5224 5.91246 4.52055C5.91282 4.52032 5.91429 4.51956 5.91716 4.51874L6.62215 4.32872C6.71541 4.30358 6.80179 4.25529 6.87195 4.18907L7.73411 3.37548C7.73541 3.37424 7.73713 3.37345 7.73896 3.37325L9.03652 3.23962C9.2834 3.21422 9.48827 3.03507 9.54637 2.79376ZM5.1512 2.31674L5.63626 1.40375C5.70794 1.26879 5.73054 1.11203 5.69981 0.962355L5.63395 0.641291C5.91673 0.59965 6.20582 0.577789 6.49997 0.577789C6.79664 0.577789 7.0882 0.600006 7.37329 0.642307C7.37329 0.642307 7.30379 0.718275 7.29178 0.723074L6.60479 0.998639C6.50663 1.03804 6.41837 1.10134 6.34956 1.18173L5.27917 2.43283C5.26462 2.44984 5.24344 2.46012 5.22105 2.46109C5.18705 2.46259 5.16605 2.44382 5.15623 2.4329C5.11817 2.39055 5.14749 2.3238 5.1512 2.31674ZM2.626 2.02409V2.8909C2.626 3.133 2.50466 3.35601 2.30158 3.48773L1.67959 3.89134C1.53545 3.98493 1.41324 4.10424 1.31645 4.2461L0.751918 5.07333C1.05054 3.8705 1.71745 2.81155 2.626 2.02409ZM3.00358 10.552L2.92175 11.2156C1.9957 10.5113 1.28248 9.54093 0.897229 8.41938H1.26504C1.31011 8.41938 1.3517 8.44221 1.37597 8.48004L2.11928 9.6382C2.1528 9.6902 2.19266 9.73758 2.23831 9.77917L2.96141 10.4387C2.99289 10.4673 3.00879 10.5098 3.00358 10.552ZM6.5 12.4222C5.38893 12.4222 4.3485 12.1144 3.45904 11.58L3.57703 10.6227C3.60506 10.3948 3.52041 10.1663 3.35083 10.0117C3.35083 10.0117 2.61186 9.33573 2.60548 9.32618L1.86217 8.16804C1.73101 7.96352 1.5077 7.84159 1.26504 7.84159H0.731072C0.63083 7.41036 0.577764 6.96125 0.577764 6.5C0.577764 6.45018 0.578424 6.40057 0.579643 6.35106L1.7937 4.57196C1.84714 4.49338 1.91445 4.42752 1.99418 4.37582L2.61587 3.97254C2.98391 3.73392 3.20376 3.32947 3.20376 2.89095V1.58224C3.76462 1.20509 4.39326 0.921502 5.06716 0.753416L5.13383 1.07844C5.13759 1.09685 5.13482 1.11612 5.12601 1.13268L4.641 2.04565C4.61068 2.10265 4.5714 2.25255 4.5714 2.25255C4.53202 2.45192 4.58529 2.65474 4.71758 2.80902C4.84372 2.95615 5.02445 3.03898 5.21701 3.03898C5.22638 3.03898 5.5057 3.05261 5.71817 2.80848L6.78854 1.55746C6.79699 1.54756 6.80789 1.53976 6.81992 1.53494L7.50687 1.2594C7.60457 1.22022 7.69244 1.15733 7.76105 1.07755L8.02036 0.776039C8.47681 0.897406 8.91191 1.07169 9.31826 1.29248C9.31155 1.30782 8.98457 2.6586 8.98457 2.6586C8.98376 2.66203 8.98082 2.66459 8.97729 2.66495L7.67965 2.79858C7.55214 2.81173 7.43059 2.86739 7.33743 2.95534L6.47527 3.76893C6.47428 3.76985 6.47309 3.77056 6.47171 3.77089L5.76669 3.96091C5.53668 4.02289 5.36837 4.21563 5.3379 4.45189C5.30743 4.68815 5.42133 4.91725 5.62811 5.03562C5.70695 5.08072 5.79655 5.10717 5.8872 5.11215L8.2355 5.24073C8.23862 5.2409 8.24139 5.24281 8.24266 5.24568L8.3202 5.41925C8.32183 5.42285 8.32066 5.42717 8.31741 5.42948L7.48125 6.02883C7.47957 6.03004 7.47762 6.03058 7.47551 6.03035L6.21116 5.89261L5.30004 5.51251C5.10862 5.4326 4.88691 5.46063 4.72131 5.58553L3.78089 6.2951C3.65775 6.38803 3.57729 6.52323 3.55436 6.67581L3.40029 7.70001C3.38058 7.83113 3.40638 7.96651 3.47288 8.0812L4.08538 9.1373C4.18105 9.30229 4.35162 9.41065 4.54165 9.42721L5.61829 9.52085C5.62146 9.52113 5.62428 9.52324 5.62539 9.52628L5.86094 10.1588L6.10601 11.2796C6.14087 11.439 6.2416 11.5776 6.38234 11.6601L6.91572 11.9726C7.00763 12.0264 7.10983 12.0527 7.21139 12.0527C7.36133 12.0527 7.50996 11.9955 7.62229 11.8854L8.44482 11.0792C8.55197 10.9742 8.61425 10.8338 8.62024 10.684L8.67384 9.34362C8.67389 9.34207 8.67435 9.34055 8.67524 9.33933L9.29292 8.40305C9.45067 8.16382 9.41329 7.84809 9.20405 7.65233L8.82505 7.2977C8.82301 7.29579 8.82207 7.293 8.82251 7.29023L8.87862 6.94761C8.87908 6.94484 8.8793 6.94317 8.88347 6.94131C8.88751 6.93946 8.88898 6.9404 8.89139 6.94192L9.61802 7.41079C9.86131 7.56778 10.1881 7.52146 10.3781 7.30293L10.6477 6.99288C10.7737 6.84805 10.8208 6.65049 10.7737 6.46443C10.7265 6.27837 10.5912 6.12699 10.4114 6.0595L10.3909 6.05181C10.3882 6.05081 10.3869 6.04995 10.3869 6.04995C10.3853 6.04777 10.3849 6.04122 10.386 6.03908C10.3863 6.03883 10.3875 6.03781 10.3899 6.03652L10.8228 5.80991C10.8256 5.80841 10.8291 5.80869 10.8316 5.81062L11.1785 6.0707C11.3361 6.18896 11.5411 6.22007 11.7268 6.15395C11.9124 6.08786 12.0516 5.9342 12.099 5.7429L12.1571 5.50888C12.1578 5.50573 12.1604 5.50327 12.1636 5.50266L12.3324 5.47021C12.3914 5.80478 12.4223 6.14887 12.4223 6.50008C12.4222 9.76554 9.76551 12.4222 6.5 12.4222Z" fill="#707683"/>
</svg>
