<?xml version="1.0" encoding="utf-8"?>
<!-- Generator: Adobe Illustrator 21.0.0, SVG Export Plug-In . SVG Version: 6.00 Build 0)  -->
<svg version="1.1" id="Слой_1" xmlns="http://www.w3.org/2000/svg" xmlns:xlink="http://www.w3.org/1999/xlink" x="0px" y="0px"
	 viewBox="0 0 26 26" style="enable-background:new 0 0 26 26;" xml:space="preserve">
<style type="text/css">
	.st0{clip-path:url(#SVGID_2_);}
	.st1{fill:none;stroke:#707683;}
	.st2{fill:#707683;}
</style>
<g>
	<defs>
		<rect id="SVGID_1_" width="26" height="26"/>
	</defs>
	<clipPath id="SVGID_2_">
		<use xlink:href="#SVGID_1_"  style="overflow:visible;"/>
	</clipPath>
	<g class="st0">
		<path class="st1" d="M25.4,12.9L25.4,12.9l-2.9-2.2l0,0c-0.1-0.1-0.3-0.1-0.4,0l0,0c-0.1,0.1-0.2,0.2-0.2,0.3v1.4v0.5h-0.5h-0.9
			H20v-0.5V11c0-0.2-0.2-0.4-0.4-0.4h-1.7h-0.5v-0.5V6.9c0-0.2-0.2-0.4-0.4-0.4h-2.7h-0.5V6V5.1V4.6h0.5H15c0.2,0,0.4-0.2,0.4-0.4
			c0-0.2-0.2-0.4-0.4-0.4H9.4C9.2,3.9,9,4,9,4.2c0,0.2,0.2,0.4,0.4,0.4h0.7h0.5v0.5V6v0.5h-0.5H6.8c-0.2,0-0.4,0.2-0.4,0.4v1.7v0.5
			H5.9H4.2C4,9.1,3.8,9.3,3.8,9.5v2V12H3.3H1.7H1.2v-0.5V9c0-0.2-0.2-0.4-0.4-0.4h0C0.7,8.6,0.5,8.8,0.5,9v9.1
			c0,0.2,0.2,0.4,0.4,0.4c0.2,0,0.4-0.2,0.4-0.4v-2.5v-0.5h0.5h1.6h0.5v0.5v2C3.8,17.9,4,18,4.2,18h2.2h0.2l0.2,0.2L9.8,22
			c0,0,0,0,0,0c0.1,0.1,0.2,0.1,0.3,0.1h9.5c0.2,0,0.4-0.2,0.4-0.4v-1.2v-0.5h0.5h0.9h0.5v0.5v1.2c0,0.1,0.1,0.3,0.2,0.3
			c0,0,0.1,0,0.2,0c0.1,0,0.2,0,0.2-0.1l2.9-2.5L25.4,12.9z M25.4,12.9c0.1,0.1,0.1,0.2,0.1,0.3v6c0,0.1,0,0.2-0.1,0.3L25.4,12.9z"
			/>
		<path class="st2" d="M11.3,15.8c0-0.6,0.1-1.1,0.2-1.4c0.1-0.4,0.4-0.7,0.8-1c0.4-0.3,0.6-0.6,0.8-0.8c0.1-0.2,0.2-0.4,0.2-0.7
			c0-0.7-0.3-1.1-1-1.1c-0.3,0-0.6,0.1-0.8,0.3c-0.2,0.2-0.3,0.5-0.3,0.8H9.4c0-0.8,0.3-1.4,0.8-1.9c0.5-0.5,1.2-0.7,2.1-0.7
			c0.9,0,1.6,0.2,2.1,0.7c0.5,0.4,0.7,1,0.7,1.8c0,0.4-0.1,0.7-0.2,1c-0.2,0.3-0.4,0.7-0.8,1.1l-0.5,0.5C13.2,14.7,13,15,13,15.4
			l0,0.4H11.3z M11.1,17.8c0-0.3,0.1-0.5,0.3-0.7c0.2-0.2,0.4-0.3,0.7-0.3s0.5,0.1,0.7,0.3c0.2,0.2,0.3,0.4,0.3,0.7
			c0,0.3-0.1,0.5-0.3,0.7c-0.2,0.2-0.4,0.3-0.7,0.3s-0.6-0.1-0.7-0.3C11.2,18.3,11.1,18.1,11.1,17.8z"/>
	</g>
</g>
</svg>
