<svg width="16" height="16" viewBox="0 0 16 16" fill="none" xmlns="http://www.w3.org/2000/svg">
<path d="M16 14.5366V0.68548C16 0.306881 15.7805 0 15.5097 0L0.490302 0C0.219501 0 0 0.306881 0 0.68548L0 14.5366C0 14.9152 0.219501 15.222 0.490302 15.222L15.5097 15.222C15.7804 15.222 16 14.9152 16 14.5366ZM0.980605 13.851L0.980605 1.37089L15.0193 1.37089L15.0193 13.851L0.980605 13.851Z" fill="#D93939"/>
<path d="M9.03516 3.60749V8.24537C9.03516 8.77299 8.60747 9.20068 8.07985 9.20068C7.55223 9.20068 7.12454 8.7729 7.12454 8.24537V3.60749C7.12454 3.07987 7.55223 2.65219 8.07985 2.65219C8.60747 2.65219 9.03516 3.07987 9.03516 3.60749Z" fill="#D93939"/>
<path d="M7.07969 11.1781C7.07969 10.6243 7.52869 10.1753 8.08257 10.1753C8.63644 10.1753 9.08545 10.6243 9.08545 11.1781C9.08545 11.732 8.63644 12.181 8.08257 12.181C7.52869 12.181 7.07969 11.732 7.07969 11.1781Z" fill="#D93939"/>
</svg>
