<svg width="26" height="26" viewBox="0 0 26 26" fill="none" xmlns="http://www.w3.org/2000/svg">
<g clip-path="url(#clip0)">
<path d="M25.6555 12.5344L22.7379 10.3194C22.4741 10.1191 22.1208 10.0851 21.8239 10.2331C21.5279 10.3798 21.3404 10.6822 21.3404 11.0132V12.3685H20.4773V10.9988C20.4773 10.5176 20.0873 10.1276 19.6064 10.1276H17.8724V6.89279C17.8724 6.41158 17.4823 6.02157 17.0013 6.02157H14.2922V5.097H15.0215C15.5025 5.097 15.8926 4.70691 15.8926 4.22587C15.8926 3.74484 15.5025 3.35492 15.0215 3.35492H9.39412C8.91317 3.35492 8.52308 3.74484 8.52308 4.22587C8.52308 4.70691 8.91317 5.097 9.39412 5.097H10.1239V6.02157H6.75652C6.27548 6.02157 5.88539 6.41158 5.88539 6.89279V8.59306H4.18424C3.70312 8.59306 3.31311 8.98306 3.31311 9.4641V11.4567H1.742V8.98527C1.742 8.50423 1.35199 8.11422 0.870954 8.11422C0.389918 8.11413 0 8.50423 0 8.98518V18.0962C0 18.5772 0.389918 18.9671 0.871042 18.9671C1.35208 18.9671 1.74208 18.5771 1.74208 18.0962V15.6246H3.31329V17.6673C3.31329 18.1485 3.70329 18.5384 4.18442 18.5384H6.37488L9.448 22.323C9.61342 22.5267 9.86186 22.6449 10.1241 22.6449H19.6065C20.0876 22.6449 20.4775 22.2547 20.4775 21.7738V20.6228H21.3405V21.7738C21.3405 22.114 21.5385 22.4228 21.8474 22.5652C21.9639 22.6187 22.0882 22.6448 22.2115 22.6448C22.4156 22.6448 22.6172 22.573 22.7785 22.435L25.6962 19.9344C25.8892 19.7687 26.0002 19.5272 26.0002 19.2729V13.228C26 12.9559 25.8724 12.699 25.6555 12.5344Z" fill="#C4C4C4"/>
</g>
<defs>
<clipPath id="clip0">
<rect width="26" height="26" fill="white"/>
</clipPath>
</defs>
</svg>
