<svg width="14" height="15" viewBox="0 0 14 15" fill="none" xmlns="http://www.w3.org/2000/svg">
<g clip-path="url(#clip0)">
<path d="M12.5275 6.01516C12.5275 2.96716 10.0477 0.487549 6.99964 0.487549C3.95164 0.487549 1.47192 2.96716 1.47192 6.01516C1.47192 9.06306 3.95164 11.5427 6.99964 11.5427C10.0477 11.5427 12.5275 9.06306 12.5275 6.01516ZM6.01429 8.3731L4.12704 6.48585L4.69909 5.9139L6.01429 7.22911L9.3003 3.9432L9.87235 4.51514L6.01429 8.3731Z" fill="#AAAAAA"/>
<path d="M1.89134 9.75928L0.218018 12.1998L2.69198 11.7385L3.15335 14.2125L4.72028 11.9272C3.58267 11.487 2.60297 10.7277 1.89134 9.75928Z" fill="#A6A6A6"/>
<path d="M12.108 9.75928C11.3964 10.7277 10.4167 11.487 9.27905 11.9272L10.846 14.2125L11.3074 11.7385L13.7813 12.1998L12.108 9.75928Z" fill="#A6A6A6"/>
</g>
<defs>
<clipPath id="clip0">
<rect x="0.137695" y="0.487549" width="13.725" height="13.725" fill="white"/>
</clipPath>
</defs>
</svg>
