<svg width="15" height="15" viewBox="0 0 15 15" fill="none" xmlns="http://www.w3.org/2000/svg">
<g clip-path="url(#clip0)">
<path d="M12.7031 3.91235H10.969V5.08102H12.7031V3.91235Z" fill="#AAAAAA"/>
<path d="M12.9671 5.60938H0.981445V12.2449C0.981445 12.5364 1.21777 12.7728 1.50933 12.7728H14.1601C14.4517 12.7728 14.688 12.5364 14.688 12.2449V5.60938H12.9671ZM4.52092 7.15344H4.08013V7.58102C4.08013 7.72678 3.96195 7.84496 3.81619 7.84496C3.67043 7.84496 3.55225 7.72678 3.55225 7.58102V7.15344H3.1141C2.96834 7.15344 2.85016 7.03526 2.85016 6.88949C2.85016 6.74373 2.96834 6.62555 3.1141 6.62555H3.11674H3.55489V6.18741C3.55489 6.04165 3.67307 5.92347 3.81883 5.92347C3.96459 5.92347 4.08277 6.04165 4.08277 6.18741V6.62555H4.52092C4.66668 6.62555 4.78486 6.74373 4.78486 6.88949C4.78486 7.03526 4.66668 7.15344 4.52092 7.15344ZM12.5395 7.15344H11.1327C10.9869 7.15344 10.8687 7.03526 10.8687 6.88949C10.8687 6.74373 10.9869 6.62555 11.1327 6.62555H11.1353H12.5395C12.6853 6.62555 12.8034 6.74373 12.8034 6.88949C12.8034 7.03526 12.6853 7.15344 12.5395 7.15344Z" fill="#AAAAAA"/>
<path d="M4.68186 3.91235H2.94775V5.08102H4.68186V3.91235Z" fill="#AAAAAA"/>
<path d="M14.16 2.40259H1.49078C1.19922 2.40259 0.962891 2.63892 0.962891 2.93047V5.09216H2.40138V3.6484C2.40138 3.50263 2.51956 3.38445 2.66532 3.38445H4.92731C5.07307 3.38445 5.19125 3.50263 5.19125 3.6484V5.0816H10.4411V3.6484C10.4411 3.50263 10.5592 3.38445 10.705 3.38445H12.967C13.1128 3.38445 13.2309 3.50263 13.2309 3.6484V5.0816H14.6694V2.91728C14.6626 2.63793 14.4393 2.41229 14.16 2.40259Z" fill="#AAAAAA"/>
</g>
<defs>
<clipPath id="clip0">
<rect x="0.962891" y="0.725098" width="13.725" height="13.725" fill="white"/>
</clipPath>
</defs>
</svg>
