<svg width="17" height="12" viewBox="0 0 17 12" fill="none" xmlns="http://www.w3.org/2000/svg">
<path d="M15.8354 5.93029L14.1242 4.61695C13.9694 4.4982 13.7622 4.47805 13.588 4.5658C13.4144 4.65276 13.3045 4.83207 13.3045 5.02834V5.83195H12.7983V5.01978C12.7983 4.73451 12.5695 4.50321 12.2874 4.50321H11.2704V2.58524C11.2704 2.29992 11.0416 2.06867 10.7595 2.06867H9.17045V1.52047H9.59821C9.88035 1.52047 10.1092 1.28918 10.1092 1.00396C10.1092 0.718741 9.88035 0.487549 9.59821 0.487549H6.29757C6.01548 0.487549 5.78668 0.718741 5.78668 1.00396C5.78668 1.28918 6.01548 1.52047 6.29757 1.52047H6.72564V2.06867H4.75053C4.46838 2.06867 4.23958 2.29992 4.23958 2.58524V3.59337H3.2418C2.9596 3.59337 2.73085 3.82462 2.73085 4.10983V5.29132H1.80934V3.82592C1.80934 3.5407 1.58059 3.30946 1.29844 3.30946C1.0163 3.30941 0.787598 3.5407 0.787598 3.82587V9.228C0.787598 9.51322 1.0163 9.74441 1.29849 9.74441C1.58064 9.74441 1.80939 9.51317 1.80939 9.228V7.76255H2.73096V8.97374C2.73096 9.25901 2.95971 9.4902 3.2419 9.4902H4.52668L6.32917 11.7342C6.4262 11.8549 6.57192 11.925 6.72575 11.925H12.2875C12.5697 11.925 12.7984 11.6937 12.7984 11.4085V10.7261H13.3046V11.4085C13.3046 11.6103 13.4207 11.7933 13.6019 11.8778C13.6702 11.9095 13.7431 11.925 13.8154 11.925C13.9351 11.925 14.0534 11.8824 14.148 11.8006L15.8593 10.3179C15.9725 10.2197 16.0376 10.0765 16.0376 9.9257V6.34152C16.0375 6.18023 15.9627 6.02791 15.8354 5.93029Z" fill="#AAAAAA"/>
</svg>
