<svg width="14" height="15" viewBox="0 0 14 15" fill="none" xmlns="http://www.w3.org/2000/svg">
<g clip-path="url(#clip0)">
<path d="M11.2253 2.63379H8.00854V5.85051H11.2253V2.63379Z" fill="#AAAAAA"/>
<path d="M12.9853 12.3955H6.24504C5.90272 12.3955 5.62524 12.673 5.62524 13.0153V13.8303C5.62524 14.1726 5.90272 14.4501 6.24504 14.4501H12.9853C13.3276 14.4501 13.6051 14.1726 13.6051 13.8303V13.0153C13.6051 12.673 13.3276 12.3955 12.9853 12.3955Z" fill="#AAAAAA"/>
<path d="M12.2701 0.811556H6.95845C6.61613 0.811556 6.33866 1.08903 6.33866 1.43135V5.41662C5.17752 5.71171 4.47545 6.89223 4.77054 8.05337C4.77639 8.07634 4.78259 8.09923 4.78918 8.12201C5.0061 8.95563 5.03709 10.0589 4.59704 10.5082C4.34905 10.7239 4.00258 10.7858 3.69524 10.6694C3.36056 10.6172 3.07433 10.4008 2.9329 10.093C2.53623 9.17876 3.33576 7.44644 3.66735 6.87003C3.74173 6.75537 5.48954 4.04068 3.69834 2.44471C3.5155 2.25257 1.88855 0.566738 0.568392 0.737181C0.397251 0.759416 0.276547 0.916224 0.298782 1.08736C0.321017 1.2585 0.477824 1.37921 0.648965 1.35697C0.914081 1.3383 1.17939 1.39071 1.41751 1.50882L1.1355 1.8621C0.921751 2.12916 0.964749 2.51889 1.23157 2.73291L2.39678 3.6626C2.66259 3.87825 3.05295 3.83758 3.26856 3.57173C3.27243 3.56696 3.27623 3.56212 3.27994 3.55724L3.54955 3.21325C4.44515 4.51172 3.16838 6.51055 3.14359 6.54464C3.08781 6.6438 1.76765 8.95253 2.36575 10.3409C2.58368 10.829 3.02943 11.1772 3.55575 11.2706C3.7181 11.3103 3.88447 11.331 4.05159 11.3325C4.42253 11.3452 4.78193 11.2025 5.04325 10.939C5.71883 10.2727 5.65065 8.91844 5.40893 7.96396C5.16942 7.18384 5.576 6.35169 6.33862 6.0612V11.1931C6.33862 11.5354 6.61609 11.8129 6.95841 11.8129H12.27C12.6123 11.8129 12.8898 11.5354 12.8898 11.1931V1.43135C12.8899 1.08903 12.6124 0.811556 12.2701 0.811556ZM10.8538 7.80901H8.37468C8.20354 7.80901 8.06478 7.67026 8.06478 7.49912C8.06478 7.32798 8.20354 7.18922 8.37468 7.18922H10.8538C11.025 7.18922 11.1637 7.32798 11.1637 7.49912C11.1637 7.67026 11.025 7.80901 10.8538 7.80901ZM11.8424 5.84737C11.8424 6.18969 11.5649 6.46716 11.2226 6.46716H8.009C7.66668 6.46716 7.38921 6.18969 7.38921 5.84737V2.62755C7.38921 2.28523 7.66668 2.00776 8.009 2.00776H11.2226C11.5649 2.00776 11.8424 2.28523 11.8424 2.62755V5.84737Z" fill="#AAAAAA"/>
</g>
<defs>
<clipPath id="clip0">
<rect x="0.0878906" y="0.725098" width="13.725" height="13.725" fill="white"/>
</clipPath>
</defs>
</svg>
