<svg width="15" height="14" viewBox="0 0 15 14" fill="none" xmlns="http://www.w3.org/2000/svg">
<path d="M9.7498 6.57302C10.0349 6.3828 10.3712 6.30179 10.7004 6.33871L14.4504 2.58765L12.3503 0.487549L8.59977 4.23861C8.63771 4.57188 8.55362 4.91232 8.35571 5.20098L9.7498 6.57302Z" fill="#AAAAAA"/>
<path d="M3.20806 11.1414L3.07219 11.0055L2.36104 11.5803L1.16333 13.4676L1.46994 13.7742L3.3588 12.5765L3.93304 11.8674L3.79666 11.7295L6.18183 9.34378L5.58913 8.75928L3.20806 11.1414Z" fill="#AAAAAA"/>
<path d="M6.46984 4.52715C6.74517 3.54273 6.49548 2.44243 5.72281 1.66823C4.9527 0.901196 3.86523 0.649451 2.88644 0.91504L4.54407 2.57215L4.10928 4.19542L2.48396 4.63021L0.826847 2.97412C0.562284 3.95239 0.813516 5.03987 1.58208 5.80895C2.38757 6.61495 3.54836 6.85131 4.56355 6.52112L4.57278 6.53035L11.3914 13.349C11.6611 13.6182 12.0149 13.7546 12.3682 13.7546C12.7219 13.7546 13.0747 13.6182 13.3454 13.349C13.8843 12.8112 13.8843 11.937 13.3454 11.395L6.46984 4.52715ZM12.4871 13.1173C12.1969 13.1173 11.9616 12.8809 11.9616 12.5897C11.9616 12.2974 12.1969 12.0621 12.4871 12.0621C12.7794 12.0621 13.0157 12.2974 13.0157 12.5897C13.0163 12.8809 12.7799 13.1173 12.4871 13.1173Z" fill="#AAAAAA"/>
</svg>
