<svg width="17" height="13" viewBox="0 0 17 13" fill="none" xmlns="http://www.w3.org/2000/svg">
<path d="M14.9247 0H2.07883C0.932133 0 0 0.932133 0 2.07883V10.8585C0 12.0052 0.932133 12.9373 2.07883 12.9373H14.9212C16.0679 12.9373 17 12.0052 17 10.8585V2.08235C17.0035 0.93565 16.0714 0 14.9247 0ZM16.0538 10.8585C16.0538 11.4811 15.5473 11.9876 14.9247 11.9876H2.07883C1.45624 11.9876 0.94972 11.4811 0.94972 10.8585V2.08235C0.94972 1.45976 1.45624 0.953238 2.07883 0.953238H14.9212C15.5438 0.953238 16.0503 1.45976 16.0503 2.08235V10.8585H16.0538Z" fill="#AAAAAA"/>
<path d="M10.7216 6.35965L14.8793 2.63112C15.0728 2.45524 15.0903 2.15626 14.9145 1.95928C14.7386 1.76582 14.4396 1.74823 14.2426 1.9241L8.50913 7.07018L7.39058 6.07122C7.38706 6.0677 7.38354 6.06418 7.38354 6.06066C7.35892 6.03604 7.3343 6.01494 7.30616 5.99383L2.75453 1.92059C2.55756 1.74471 2.25857 1.7623 2.0827 1.95928C1.90682 2.15626 1.92441 2.45524 2.12139 2.63112L6.3283 6.39131L2.13897 10.3133C1.94903 10.4927 1.93848 10.7917 2.11787 10.9851C2.21284 11.0836 2.33947 11.1364 2.4661 11.1364C2.58218 11.1364 2.69825 11.0942 2.78971 11.0098L7.04234 7.03149L8.19608 8.06211C8.28753 8.14301 8.40009 8.1817 8.51265 8.1817C8.62521 8.1817 8.74129 8.13949 8.82923 8.05859L10.0146 6.99631L14.2426 11.0133C14.3341 11.1012 14.4537 11.1434 14.5698 11.1434C14.6964 11.1434 14.8195 11.0942 14.9145 10.9957C15.0939 10.8057 15.0868 10.5032 14.8969 10.3239L10.7216 6.35965Z" fill="#AAAAAA"/>
</svg>
