<svg width="17" height="18" viewBox="0 0 17 18" fill="none" xmlns="http://www.w3.org/2000/svg">
<path d="M13.4425 10.5462C13.094 10.1833 12.6736 9.98927 12.228 9.98927C11.7861 9.98927 11.3621 10.1797 10.9992 10.5426L9.86372 11.6745C9.77029 11.6242 9.67687 11.5775 9.58704 11.5308C9.45769 11.4661 9.33552 11.405 9.23132 11.3403C8.16773 10.6648 7.20116 9.78446 6.27412 8.64542C5.82497 8.0777 5.52314 7.5998 5.30396 7.11472C5.5986 6.84523 5.87168 6.56496 6.13758 6.29547C6.23819 6.19486 6.3388 6.09066 6.43941 5.99005C7.19398 5.23548 7.19398 4.25814 6.43941 3.50357L5.45847 2.52263C5.34708 2.41124 5.2321 2.29626 5.1243 2.18127C4.90871 1.9585 4.68234 1.72853 4.44878 1.51294C4.10024 1.16799 3.68343 0.984741 3.24506 0.984741C2.80669 0.984741 2.3827 1.16799 2.02338 1.51294C2.01978 1.51653 2.01978 1.51653 2.01619 1.52013L0.794507 2.75259C0.334579 3.21252 0.0722765 3.77306 0.0147854 4.42342C-0.0714511 5.47263 0.237563 6.44998 0.474714 7.08957C1.05681 8.65979 1.92636 10.115 3.2235 11.6745C4.79732 13.5537 6.69093 15.0377 8.85403 16.0833C9.68046 16.475 10.7836 16.9385 12.016 17.0175C12.0915 17.0211 12.1705 17.0247 12.2424 17.0247C13.0724 17.0247 13.7695 16.7265 14.3157 16.1336C14.3193 16.1264 14.3265 16.1228 14.3301 16.1157C14.5169 15.8893 14.7325 15.6845 14.9589 15.4653C15.1134 15.318 15.2715 15.1635 15.426 15.0018C15.7817 14.6317 15.9685 14.2005 15.9685 13.7585C15.9685 13.313 15.7781 12.8854 15.4152 12.5261L13.4425 10.5462ZM14.7289 14.3298C14.7253 14.3298 14.7253 14.3334 14.7289 14.3298C14.5888 14.4808 14.445 14.6173 14.2905 14.7682C14.057 14.991 13.8198 15.2245 13.597 15.4869C13.2341 15.8749 12.8065 16.0582 12.246 16.0582C12.1921 16.0582 12.1346 16.0582 12.0807 16.0546C11.0135 15.9863 10.0218 15.5695 9.27803 15.2138C7.24428 14.2292 5.45847 12.8315 3.97448 11.06C2.7492 9.58324 1.92996 8.21783 1.38738 6.75181C1.05322 5.85711 0.931049 5.16003 0.984946 4.50247C1.02088 4.08207 1.18257 3.73353 1.48081 3.4353L2.70608 2.21002C2.88215 2.04473 3.069 1.9549 3.25225 1.9549C3.47862 1.9549 3.66187 2.09144 3.77685 2.20643C3.78045 2.21002 3.78404 2.21361 3.78763 2.21721C4.00682 2.42202 4.21522 2.63402 4.43441 2.86039C4.5458 2.97537 4.66078 3.09035 4.77576 3.20893L5.7567 4.18987C6.13758 4.57074 6.13758 4.92288 5.7567 5.30375C5.6525 5.40796 5.55189 5.51216 5.44769 5.61277C5.14586 5.92178 4.8584 6.20924 4.5458 6.48951C4.53861 6.49669 4.53142 6.50029 4.52783 6.50747C4.21882 6.81649 4.27631 7.11831 4.34098 7.32313C4.34458 7.33391 4.34817 7.34469 4.35176 7.35546C4.60688 7.97349 4.9662 8.55559 5.51236 9.24908L5.51596 9.25267C6.50768 10.4744 7.5533 11.4265 8.70671 12.156C8.85403 12.2494 9.00494 12.3248 9.14867 12.3967C9.27803 12.4614 9.40019 12.5225 9.5044 12.5871C9.51877 12.5943 9.53314 12.6051 9.54752 12.6123C9.66968 12.6734 9.78467 12.7021 9.90324 12.7021C10.2015 12.7021 10.3883 12.5153 10.4494 12.4542L11.6783 11.2253C11.8004 11.1032 11.9945 10.9558 12.2208 10.9558C12.4436 10.9558 12.6269 11.096 12.7383 11.2181C12.7419 11.2217 12.7419 11.2217 12.7455 11.2253L14.7253 13.2052C15.0954 13.5717 15.0954 13.949 14.7289 14.3298Z" fill="#AAAAAA"/>
<path d="M9.18835 4.04975C10.1298 4.20785 10.9849 4.6534 11.6676 5.33611C12.3504 6.01881 12.7923 6.87399 12.954 7.81541C12.9935 8.05256 13.1983 8.21785 13.4319 8.21785C13.4606 8.21785 13.4858 8.21425 13.5145 8.21066C13.7804 8.16754 13.9565 7.91602 13.9134 7.65012C13.7194 6.51108 13.1804 5.47265 12.3575 4.64981C11.5347 3.82697 10.4963 3.28799 9.35723 3.09396C9.09133 3.05084 8.8434 3.22691 8.79669 3.48921C8.74998 3.75151 8.92245 4.00663 9.18835 4.04975Z" fill="#AAAAAA"/>
<path d="M16.9923 7.50997C16.6725 5.63433 15.7886 3.92756 14.4303 2.56934C13.0721 1.21111 11.3653 0.327189 9.4897 0.00739531C9.2274 -0.0393161 8.97947 0.140343 8.93276 0.402646C8.88964 0.668542 9.06571 0.916472 9.3316 0.963184C11.006 1.24705 12.5331 2.04114 13.7476 3.25205C14.9621 4.46654 15.7526 5.99365 16.0365 7.66808C16.076 7.90523 16.2808 8.07051 16.5144 8.07051C16.5431 8.07051 16.5683 8.06692 16.597 8.06333C16.8593 8.0238 17.039 7.77228 16.9923 7.50997Z" fill="#AAAAAA"/>
</svg>
