<svg width="15" height="16" viewBox="0 0 15 16" fill="none" xmlns="http://www.w3.org/2000/svg">
<path d="M8.0689 8.44302L14.8738 1.66873C15.0412 1.50212 15.0412 1.23492 14.8738 1.06831C14.7064 0.901708 14.438 0.901708 14.2707 1.06831L7.16263 8.14439C6.99527 8.311 6.99527 8.5782 7.16263 8.7448L14.2707 15.8177C14.3528 15.8995 14.4633 15.9435 14.5707 15.9435C14.678 15.9435 14.7885 15.9026 14.8706 15.8177C15.038 15.6511 15.038 15.3839 14.8706 15.2173L8.0689 8.44302Z" fill="white"/>
<path d="M6.92964 8.44302L0.124739 1.66873C-0.0426202 1.50212 -0.0426202 1.23492 0.124739 1.06831C0.292099 0.901708 0.560505 0.901708 0.727864 1.06831L7.83591 8.14439C8.00327 8.311 8.00327 8.5782 7.83591 8.7448L0.727864 15.8177C0.645763 15.8995 0.535243 15.9435 0.42788 15.9435C0.320518 15.9435 0.209997 15.9026 0.127896 15.8177C-0.0394635 15.6511 -0.0394635 15.3839 0.127896 15.2173L6.92964 8.44302Z" fill="white"/>
</svg>
