<svg width="30" height="30" viewBox="0 0 30 30" fill="none" xmlns="http://www.w3.org/2000/svg">
<path d="M16.1392 14.9992L29.7489 1.45073C30.0837 1.11751 30.0837 0.583119 29.7489 0.249908C29.4142 -0.0833028 28.8774 -0.0833028 28.5427 0.249908L14.3267 14.4019C13.992 14.7352 13.992 15.2696 14.3267 15.6028L28.5427 29.7485C28.7069 29.912 28.9279 30 29.1427 30C29.3574 30 29.5784 29.9183 29.7426 29.7485C30.0773 29.4153 30.0773 28.8809 29.7426 28.5477L16.1392 14.9992Z" fill="#AAAAAA"/>
<path d="M13.8608 14.9992L0.251064 1.45073C-0.0836525 1.11751 -0.0836525 0.583119 0.251064 0.249908C0.585781 -0.0833028 1.12259 -0.0833028 1.4573 0.249908L15.6733 14.4019C16.008 14.7352 16.008 15.2696 15.6733 15.6028L1.4573 29.7485C1.29311 29.912 1.07207 30 0.857342 30C0.642618 30 0.421579 29.9183 0.257379 29.7485C-0.0773373 29.4153 -0.0773373 28.8809 0.257379 28.5477L13.8608 14.9992Z" fill="#AAAAAA"/>
</svg>
