<svg width="20" height="18" viewBox="0 0 20 18" fill="none" xmlns="http://www.w3.org/2000/svg">
<path d="M7.15533 5.13562L9.33333 2.49559V12.0009C9.33333 12.3696 9.63199 12.6689 10 12.6689C10.368 12.6689 10.6667 12.3703 10.6667 12.0009V2.47026L12.866 5.13559C13.1273 5.39827 13.5513 5.39827 13.8127 5.13559C14.074 4.87291 14.074 4.44758 13.8127 4.18494L10.518 0.19095C10.3787 0.0509501 10.1933 -0.00839638 10.0113 0.000950026C9.82869 -0.0083637 9.64402 0.0509501 9.50467 0.19095L6.20866 4.18494C5.94732 4.44762 5.94732 4.87294 6.20866 5.13559C6.47 5.39827 6.89402 5.39827 7.15533 5.13562ZM19.3333 10.669C18.9653 10.669 18.6667 10.9676 18.6667 11.3356V16.0023H1.33333V11.3356C1.33333 10.9676 1.03467 10.669 0.666667 10.669C0.29866 10.669 0 10.9676 0 11.3356V16.669C0 17.037 0.29866 17.3356 0.666667 17.3356H19.3333C19.7013 17.3356 20 17.0369 20 16.669V11.3356C20 10.967 19.7013 10.669 19.3333 10.669Z" fill="#AAAAAA"/>
</svg>
